<?xml version="1.0" encoding="UTF-8" standalone="no"?><!DOCTYPE svg PUBLIC "-//W3C//DTD SVG 1.1//EN" "http://www.w3.org/Graphics/SVG/1.1/DTD/svg11.dtd"><svg width="100%" height="100%" viewBox="0 0 40 40" version="1.1" xmlns="http://www.w3.org/2000/svg" xmlns:xlink="http://www.w3.org/1999/xlink" xml:space="preserve" xmlns:serif="http://www.serif.com/" style="fill-rule:evenodd;clip-rule:evenodd;stroke-linejoin:round;stroke-miterlimit:1.41421;"><path d="M19.997,12.768c-3.991,0 -7.229,3.238 -7.229,7.232c0,3.99 3.238,7.235 7.229,7.235c3.993,0 7.207,-3.245 7.207,-7.235c0,-3.994 -3.214,-7.232 -7.207,-7.232Zm14.495,11.387l-1.303,3.138l2.324,4.565l0.307,0.603l-3.222,3.223l-5.288,-2.498l-3.139,1.289l-1.593,4.878l-0.204,0.647l-4.555,0l-1.971,-5.505l-3.139,-1.295l-4.571,2.319l-0.603,0.301l-3.221,-3.22l2.494,-5.29l-1.293,-3.136l-4.869,-1.59l-0.646,-0.21l0,-4.552l5.509,-1.974l1.293,-3.133l-2.317,-4.575l-0.305,-0.6l3.217,-3.217l5.294,2.493l3.135,-1.296l1.592,-4.874l0.205,-0.646l4.553,0l1.973,5.512l3.131,1.296l4.573,-2.32l0.608,-0.306l3.22,3.218l-2.495,5.285l1.289,3.141l4.883,1.592l0.642,0.205l0,4.551l-5.508,1.981Z" style="fill:#fff;fill-rule:nonzero;"/></svg>